# xmcd
#
# Track frame offsets: 
#        150
#        20318
#        35079
#        58104
#        68842
#        88926
#        117536
#        134745
#        154681
#        176212
#        195141
#
# Disc length: 2847 seconds
#
# Revision: 3
# Processed by: cddbd v1.5.2PL0 Copyright (c) Steve Scherf et al.
# Submitted via: ExactAudioCopyFreeDBPlugin 1.0
#
DISCID=9d0b1d0b
DTITLE=Paul Banks - Bones and Love Bombs
DYEAR=2003
DGENRE=Blues
TTITLE0=Meet the Folks
TTITLE1=Hannah
TTITLE2=Rattle your bones
TTITLE3=Looking In My Baby's Smile
TTITLE4=Ocean Liner
TTITLE5=lao-Tse and The Book of Ecclesiastes
TTITLE6=When Denmark Won the War
TTITLE7=The Copenhagen Moan
TTITLE8=Rain on Bear Mountain
TTITLE9=I'm Disappearing
TTITLE10=When I Take the Floor
EXTD=
EXTT0=
EXTT1=
EXTT2=
EXTT3=
EXTT4=
EXTT5=
EXTT6=
EXTT7=
EXTT8=
EXTT9=
EXTT10=
PLAYORDER=
